<svg width="16" height="16" viewBox="0 0 16 16" fill="none" xmlns="http://www.w3.org/2000/svg">
<circle cx="8" cy="8" r="7.85" fill="#F5F5DC" stroke="#B6B6B0" stroke-width="0.3"/>
<line x1="4.1" y1="1.11362" x2="4.1" y2="14.7449" stroke="#B6B6B0" stroke-width="0.2"/>
<line x1="8.1" y1="12" x2="8.1" y2="16" stroke="#B6B6B0" stroke-width="0.2"/>
<line x1="8.1" y1="-4.37114e-09" x2="8.1" y2="4" stroke="#B6B6B0" stroke-width="0.2"/>
<line x1="12.1" y1="1.2378" x2="12.1" y2="14.7366" stroke="#B6B6B0" stroke-width="0.2"/>
<line x1="14.8766" y1="4.1" x2="1.14595" y2="4.1" stroke="#B6B6B0" stroke-width="0.2"/>
<line x1="4" y1="8.1" x2="0.073837" y2="8.1" stroke="#B6B6B0" stroke-width="0.2"/>
<line x1="15.9197" y1="8.1" x2="12.097" y2="8.1" stroke="#B6B6B0" stroke-width="0.2"/>
<line x1="14.6986" y1="12.1" x2="1.266" y2="12.1" stroke="#B6B6B0" stroke-width="0.2"/>
<path d="M5.13502 8.70667L4.54718 4.20667H5.58096L5.7161 6.6016C5.7206 6.79486 5.72286 6.98121 5.72286 7.16065C5.72736 7.3355 5.73186 7.52645 5.73637 7.73351H5.7634C5.79493 7.52645 5.82871 7.3355 5.86475 7.16065C5.90529 6.98121 5.94358 6.79486 5.97961 6.6016L6.27691 5.34547H6.91205L7.18907 6.6016C7.22511 6.79025 7.26114 6.9743 7.29718 7.15375C7.33322 7.3332 7.36925 7.52645 7.40529 7.73351H7.43232C7.43682 7.52645 7.43907 7.3332 7.43907 7.15375C7.44358 6.9743 7.45033 6.79025 7.45934 6.6016L7.58096 4.20667H8.54718L8.00664 8.70667H6.93907L6.68232 7.31249C6.65529 7.16986 6.63051 7.02492 6.60799 6.87768C6.58547 6.73044 6.5697 6.5901 6.56069 6.45667H6.54042C6.52691 6.5901 6.51114 6.73044 6.49313 6.87768C6.47511 7.02492 6.45259 7.16986 6.42556 7.31249L6.1688 8.70667H5.13502Z" fill="#CF5D5C"/>
<path d="M8.36899 11.994V7.49399H9.30331V9.22635H10.4347V7.49399H11.369V11.994H10.4347V10.1167H9.30331V11.994H8.36899Z" fill="#556A2F"/>
</svg>
